<svg width="48" height="48" viewBox="0 0 48 48" fill="none" xmlns="http://www.w3.org/2000/svg">
<path opacity="0.5" d="M29.1117 31.0961L28.2017 32.0561C28.2017 32.0561 26.0357 34.3341 20.1257 28.1121C14.2157 21.8901 16.3817 19.6121 16.3817 19.6121L16.9557 19.0061C18.3677 17.5181 18.5017 15.1301 17.2677 13.3861L14.7477 9.8201C13.2197 7.6601 10.2697 7.3761 8.51971 9.2181L5.38171 12.5201C4.51571 13.4341 3.93571 14.6161 4.00571 15.9301C4.18571 19.2901 5.62171 26.5161 13.6297 34.9501C22.1237 43.8901 30.0937 44.2461 33.3517 43.9241C34.3837 43.8241 35.2797 43.2661 36.0017 42.5061L38.8417 39.5141C40.7617 37.4941 40.2217 34.0341 37.7657 32.6221L33.9457 30.4221C32.3337 29.4961 30.3717 29.7681 29.1117 31.0941" fill="black"/>
<path fill-rule="evenodd" clip-rule="evenodd" d="M44 13.9995C44.0003 15.7023 43.5658 17.377 42.7376 18.8648C41.9094 20.3527 40.715 21.6044 39.2676 22.5014C37.8202 23.3983 36.1677 23.9108 34.4668 23.9903C32.7658 24.0698 31.0727 23.7136 29.548 22.9555C29.1944 22.7725 28.7862 22.7248 28.4 22.8215L26.174 23.4175C25.9536 23.4765 25.7216 23.4765 25.5012 23.4174C25.2808 23.3584 25.0799 23.2423 24.9185 23.081C24.7572 22.9197 24.6412 22.7187 24.5821 22.4983C24.523 22.278 24.523 22.0459 24.582 21.8255L25.178 19.5995C25.2747 19.2133 25.227 18.8051 25.044 18.4515C24.3735 17.1016 24.0168 15.6175 24.0006 14.1103C23.9844 12.603 24.3092 11.1116 24.9506 9.74761C25.592 8.38357 26.5334 7.18218 27.7046 6.23326C28.8757 5.28434 30.2462 4.61245 31.7136 4.26782C33.181 3.92318 34.7073 3.91473 36.1784 4.24309C37.6496 4.57145 39.0274 5.22813 40.209 6.16402C41.3906 7.09991 42.3453 8.29081 43.0018 9.64766C43.6582 11.0045 43.9995 12.4922 44 13.9995ZM34 9.62553C35.036 9.62553 35.876 10.4655 35.876 11.4995V12.1255H36.5C36.9973 12.1255 37.4742 12.3231 37.8258 12.6747C38.1775 13.0263 38.375 13.5033 38.375 14.0005C38.375 14.4978 38.1775 14.9747 37.8258 15.3264C37.4742 15.678 36.9973 15.8755 36.5 15.8755H35.876V16.4995C35.876 16.9968 35.6785 17.4737 35.3268 17.8254C34.9752 18.177 34.4983 18.3745 34.001 18.3745C33.5037 18.3745 33.0268 18.177 32.6752 17.8254C32.3235 17.4737 32.126 16.9968 32.126 16.4995V15.8755H31.5C31.0027 15.8755 30.5258 15.678 30.1742 15.3264C29.8225 14.9747 29.625 14.4978 29.625 14.0005C29.625 13.5033 29.8225 13.0263 30.1742 12.6747C30.5258 12.3231 31.0027 12.1255 31.5 12.1255H32.126V11.4995C32.126 10.4635 32.966 9.62553 34 9.62553Z" fill="black"/>
</svg>
