<svg width="48" height="48" viewBox="0 0 48 48" fill="none" xmlns="http://www.w3.org/2000/svg">
<path opacity="0.2" d="M40.5 24C40.5 27.2634 39.5323 30.4535 37.7193 33.1669C35.9062 35.8803 33.3293 37.9952 30.3143 39.244C27.2993 40.4929 23.9817 40.8196 20.781 40.183C17.5803 39.5463 14.6403 37.9748 12.3327 35.6673C10.0252 33.3597 8.45371 30.4197 7.81705 27.219C7.18039 24.0183 7.50715 20.7007 8.756 17.6857C10.0048 14.6707 12.1197 12.0938 14.8331 10.2808C17.5465 8.46771 20.7366 7.5 24 7.5C28.3761 7.5 32.5729 9.23839 35.6673 12.3327C38.7616 15.4271 40.5 19.6239 40.5 24Z" fill="black"/>
<path d="M25.5011 14.9997V23.1503L32.2736 27.2134C32.6148 27.4183 32.8605 27.7503 32.9569 28.1364C33.0532 28.5225 32.9923 28.9311 32.7874 29.2722C32.5825 29.6133 32.2505 29.8591 31.8644 29.9555C31.4783 30.0518 31.0698 29.9908 30.7286 29.7859L23.2286 25.2859C23.0066 25.1526 22.823 24.964 22.6955 24.7386C22.568 24.5132 22.501 24.2587 22.5011 23.9997V14.9997C22.5011 14.6019 22.6592 14.2203 22.9405 13.939C23.2218 13.6577 23.6033 13.4997 24.0011 13.4997C24.3989 13.4997 24.7805 13.6577 25.0618 13.939C25.3431 14.2203 25.5011 14.6019 25.5011 14.9997ZM42.0011 10.4997C41.6033 10.4997 41.2218 10.6577 40.9405 10.939C40.6592 11.2203 40.5011 11.6019 40.5011 11.9997V15.3747C39.3105 13.9947 38.0955 12.6653 36.7286 11.2816C34.2271 8.77977 31.0438 7.07062 27.5764 6.36767C24.1091 5.66473 20.5115 5.99917 17.2331 7.3292C13.9547 8.65923 11.141 10.9259 9.1435 13.8459C7.14599 16.7659 6.05328 20.2099 6.0019 23.7474C5.95052 27.2849 6.94275 30.7591 8.85461 33.7359C10.7665 36.7127 13.5132 39.0601 16.7515 40.4848C19.9899 41.9095 23.5763 42.3483 27.0626 41.7463C30.5489 41.1444 33.7805 39.5284 36.3536 37.1003C36.4969 36.9649 36.6122 36.8026 36.6927 36.6226C36.7733 36.4427 36.8176 36.2486 36.8232 36.0515C36.8288 35.8544 36.7955 35.6581 36.7252 35.4739C36.6549 35.2897 36.549 35.1211 36.4136 34.9778C36.2782 34.8345 36.1159 34.7193 35.9359 34.6387C35.756 34.5581 35.5619 34.5138 35.3648 34.5082C35.1677 34.5027 34.9714 34.536 34.7872 34.6062C34.603 34.6765 34.4344 34.7824 34.2911 34.9178C32.1462 36.9392 29.4533 38.2839 26.5487 38.784C23.6441 39.2841 20.6566 38.9175 17.9591 37.7298C15.2617 36.5422 12.9739 34.5862 11.3815 32.1061C9.78901 29.626 8.96248 26.7317 9.00508 23.7847C9.04769 20.8377 9.95753 17.9685 11.621 15.5355C13.2845 13.1025 15.6279 11.2135 18.3585 10.1043C21.0891 8.9951 24.0861 8.71495 26.975 9.2988C29.8639 9.88266 32.5168 11.3046 34.6024 13.3872C36.1286 14.9322 37.4655 16.4209 38.8136 17.9997H34.5011C34.1033 17.9997 33.7218 18.1577 33.4405 18.439C33.1592 18.7203 33.0011 19.1019 33.0011 19.4997C33.0011 19.8975 33.1592 20.2791 33.4405 20.5604C33.7218 20.8417 34.1033 20.9997 34.5011 20.9997H42.0011C42.3989 20.9997 42.7805 20.8417 43.0618 20.5604C43.3431 20.2791 43.5011 19.8975 43.5011 19.4997V11.9997C43.5011 11.6019 43.3431 11.2203 43.0618 10.939C42.7805 10.6577 42.3989 10.4997 42.0011 10.4997Z" fill="black"/>
</svg>
