<svg width="48" height="48" viewBox="0 0 48 48" fill="none" xmlns="http://www.w3.org/2000/svg">
<path opacity="0.2" d="M40.4888 34.1392C40.1974 36.3162 39.1254 38.3133 37.472 39.759C35.8186 41.2048 33.6964 42.0009 31.5 41.9992C24.737 41.9992 18.251 39.3126 13.4688 34.5304C8.6866 29.7483 6 23.2622 6 16.4992C5.99832 14.3029 6.7944 12.1806 8.24018 10.5272C9.68596 8.87382 11.683 7.80178 13.86 7.51048C14.1818 7.47225 14.5074 7.53926 14.7879 7.70151C15.0684 7.86375 15.2889 8.11248 15.4163 8.41048L19.3781 17.2605C19.4755 17.4878 19.5151 17.7356 19.4935 17.982C19.4719 18.2283 19.3898 18.4654 19.2544 18.6724L15.2475 23.4367C15.1054 23.6512 15.0213 23.8989 15.0036 24.1556C14.9858 24.4122 15.035 24.6691 15.1463 24.9011C16.6969 28.0755 19.9781 31.3174 23.1619 32.853C23.3951 32.9638 23.6532 33.0118 23.9106 32.9924C24.1681 32.973 24.416 32.8868 24.63 32.7424L29.3175 28.7486C29.5252 28.6104 29.7642 28.5261 30.0127 28.5036C30.2612 28.481 30.5114 28.5207 30.7406 28.6192L39.5831 32.5811C39.8825 32.7076 40.1327 32.928 40.296 33.209C40.4594 33.49 40.527 33.8165 40.4888 34.1392Z" fill="black"/>
<path d="M27.0506 8.6115C27.1016 8.42113 27.1895 8.24266 27.3094 8.08629C27.4293 7.92992 27.5789 7.79871 27.7495 7.70015C27.9201 7.6016 28.1085 7.53763 28.3039 7.51191C28.4993 7.48619 28.6978 7.49922 28.8881 7.55025C31.6689 8.27577 34.206 9.72945 36.2381 11.7616C38.2702 13.7937 39.7239 16.3308 40.4494 19.1115C40.5004 19.3018 40.5134 19.5004 40.4877 19.6957C40.462 19.8911 40.398 20.0795 40.2995 20.2501C40.2009 20.4208 40.0697 20.5703 39.9133 20.6902C39.757 20.8102 39.5785 20.8981 39.3881 20.949C39.2615 20.9823 39.131 20.9993 39 20.9996C38.6695 20.9996 38.3482 20.8904 38.0861 20.689C37.824 20.4876 37.6358 20.2053 37.5506 19.8859C36.9589 17.6158 35.7725 15.5447 34.1137 13.8859C32.4549 12.2271 30.3838 11.0407 28.1138 10.449C27.9232 10.3983 27.7446 10.3105 27.588 10.1907C27.4314 10.0708 27.3 9.92132 27.2013 9.75066C27.1025 9.57999 27.0384 9.39154 27.0125 9.19607C26.9867 9.0006 26.9996 8.80196 27.0506 8.6115ZM26.6138 16.449C29.1994 17.139 30.8606 18.8002 31.5506 21.3859C31.6358 21.7053 31.824 21.9876 32.0861 22.189C32.3482 22.3904 32.6695 22.4996 33 22.4996C33.131 22.4993 33.2615 22.4823 33.3881 22.449C33.5785 22.3981 33.757 22.3102 33.9133 22.1902C34.0697 22.0703 34.2009 21.9208 34.2995 21.7501C34.398 21.5795 34.462 21.3911 34.4877 21.1957C34.5134 21.0004 34.5004 20.8018 34.4494 20.6115C33.4894 17.019 30.9806 14.5102 27.3881 13.5502C27.0037 13.4476 26.5943 13.5018 26.2499 13.701C25.9055 13.9002 25.6543 14.228 25.5516 14.6124C25.4489 14.9968 25.5031 15.4063 25.7023 15.7507C25.9015 16.0951 26.2294 16.3463 26.6138 16.449ZM41.9775 34.3271C41.6432 36.8678 40.3955 39.1999 38.4673 40.8879C36.5392 42.5758 34.0626 43.5042 31.5 43.4996C16.6125 43.4996 4.50002 31.3871 4.50002 16.4996C4.49542 13.937 5.42381 11.4604 7.11177 9.5323C8.79973 7.60419 11.1318 6.35645 13.6725 6.02212C14.315 5.94367 14.9656 6.07511 15.5272 6.39682C16.0889 6.71852 16.5314 7.21324 16.7888 7.80712L20.7488 16.6477V16.6702C20.9458 17.1248 21.0272 17.6212 20.9856 18.1149C20.9441 18.6086 20.7809 19.0843 20.5106 19.4996C20.4769 19.5502 20.4413 19.5971 20.4038 19.644L16.5 24.2715C17.9044 27.1252 20.8894 30.084 23.7806 31.4921L28.3444 27.609C28.3892 27.5713 28.4361 27.5362 28.485 27.504C28.8999 27.2273 29.3773 27.0583 29.874 27.0125C30.3706 26.9667 30.8708 27.0454 31.3294 27.2415L31.3538 27.2527L40.1869 31.2109C40.7818 31.4673 41.2777 31.9095 41.6005 32.4712C41.9233 33.0329 42.0555 33.684 41.9775 34.3271ZM39 33.9521H38.9794L30.1669 30.0052L25.6013 33.8884C25.5571 33.926 25.5108 33.9611 25.4625 33.9934C25.0308 34.2814 24.5318 34.4525 24.0142 34.4899C23.4966 34.5274 22.9781 34.43 22.5094 34.2071C18.9975 32.5102 15.4969 29.0359 13.7981 25.5615C13.5732 25.0962 13.4723 24.5807 13.5051 24.065C13.538 23.5492 13.7035 23.0507 13.9856 22.6177C14.0174 22.5668 14.0531 22.5186 14.0925 22.4734L18 17.8402L14.0625 9.02775C14.0618 9.02027 14.0618 9.01273 14.0625 9.00525C12.2442 9.24243 10.5748 10.1343 9.36679 11.5138C8.15879 12.8934 7.4951 14.6659 7.50002 16.4996C7.50696 22.8627 10.0378 28.9631 14.5371 33.4625C19.0365 37.9619 25.137 40.4927 31.5 40.4996C33.3326 40.5059 35.1047 39.8445 36.485 38.6392C37.8653 37.4338 38.7594 35.7669 39 33.9502V33.9521Z" fill="black"/>
</svg>
