<svg width="36" height="41" viewBox="0 0 36 41" fill="none" xmlns="http://www.w3.org/2000/svg">
<path opacity="0.2" d="M33.8125 23.4375C33.8125 26.5649 32.8851 29.6221 31.1476 32.2225C29.4101 34.8228 26.9405 36.8495 24.0512 38.0463C21.1618 39.2432 17.9825 39.5563 14.9151 38.9462C11.8478 38.336 9.0303 36.83 6.81888 34.6186C4.60746 32.4072 3.10147 29.5897 2.49134 26.5224C1.88121 23.455 2.19435 20.2757 3.39116 17.3863C4.58797 14.497 6.6147 12.0274 9.21505 10.2899C11.8154 8.55239 14.8726 7.625 18 7.625C22.1937 7.625 26.2157 9.29096 29.1811 12.2564C32.1466 15.2218 33.8125 19.2438 33.8125 23.4375Z" fill="black"/>
<path d="M18 6.1875C14.5883 6.1875 11.2532 7.1992 8.41642 9.09465C5.57967 10.9901 3.3687 13.6842 2.06309 16.8362C0.757474 19.9882 0.415867 23.4566 1.08146 26.8028C1.74706 30.149 3.38996 33.2226 5.80242 35.6351C8.21487 38.0476 11.2885 39.6905 14.6347 40.356C17.9809 41.0216 21.4493 40.68 24.6013 39.3744C27.7533 38.0688 30.4474 35.8578 32.3429 33.0211C34.2383 30.1843 35.25 26.8492 35.25 23.4375C35.2448 18.8641 33.4257 14.4796 30.1918 11.2457C26.958 8.01182 22.5734 6.19273 18 6.1875ZM18 37.8125C15.1569 37.8125 12.3776 36.9694 10.0137 35.3899C7.64973 33.8103 5.80725 31.5653 4.71924 28.9386C3.63123 26.3119 3.34656 23.4216 3.90122 20.6331C4.45588 17.8446 5.82497 15.2832 7.83535 13.2728C9.84573 11.2625 12.4071 9.89338 15.1956 9.33871C17.9841 8.78405 20.8744 9.06872 23.5011 10.1567C26.1278 11.2447 28.3728 13.0872 29.9524 15.4512C31.5319 17.8151 32.375 20.5944 32.375 23.4375C32.3707 27.2487 30.8548 30.9025 28.1599 33.5974C25.465 36.2923 21.8112 37.8082 18 37.8125ZM26.2045 15.233C26.3382 15.3665 26.4442 15.525 26.5166 15.6995C26.5889 15.874 26.6261 16.0611 26.6261 16.25C26.6261 16.4389 26.5889 16.626 26.5166 16.8005C26.4442 16.975 26.3382 17.1335 26.2045 17.267L19.017 24.4545C18.8835 24.5881 18.7249 24.694 18.5504 24.7663C18.3759 24.8386 18.1889 24.8758 18 24.8758C17.8111 24.8758 17.6241 24.8386 17.4496 24.7663C17.2751 24.694 17.1165 24.5881 16.983 24.4545C16.8494 24.321 16.7435 24.1624 16.6712 23.9879C16.5989 23.8134 16.5617 23.6264 16.5617 23.4375C16.5617 23.2486 16.5989 23.0616 16.6712 22.8871C16.7435 22.7126 16.8494 22.554 16.983 22.4205L24.1705 15.233C24.304 15.0993 24.4625 14.9933 24.637 14.9209C24.8115 14.8486 24.9986 14.8114 25.1875 14.8114C25.3764 14.8114 25.5635 14.8486 25.738 14.9209C25.9125 14.9933 26.071 15.0993 26.2045 15.233ZM12.25 1.875C12.25 1.49375 12.4015 1.12812 12.671 0.858534C12.9406 0.58895 13.3063 0.4375 13.6875 0.4375H22.3125C22.6938 0.4375 23.0594 0.58895 23.329 0.858534C23.5986 1.12812 23.75 1.49375 23.75 1.875C23.75 2.25625 23.5986 2.62188 23.329 2.89147C23.0594 3.16105 22.6938 3.3125 22.3125 3.3125H13.6875C13.3063 3.3125 12.9406 3.16105 12.671 2.89147C12.4015 2.62188 12.25 2.25625 12.25 1.875Z" fill="black"/>
</svg>
